<?xml version="1.0" encoding="UTF-8"?>
<svg width="16px" height="16px" viewBox="0 0 16 16" version="1.1" xmlns="http://www.w3.org/2000/svg" xmlns:xlink="http://www.w3.org/1999/xlink">
    <!-- Generator: Sketch 57.1 (83088) - https://sketch.com -->
    <title>Logo</title>
    <desc>Created with Sketch.</desc>
    <g id="Page-1" stroke="none" stroke-width="1" fill="none" fill-rule="evenodd">
        <g id="Desktop-HD-Copy-5" transform="translate(-96.000000, -766.000000)" fill-rule="nonzero">
            <g id="Logo" transform="translate(96.000000, 766.000000)">
                <rect id="Bg" fill="#FF2257" transform="translate(8.000000, 8.000000) rotate(-270.000000) translate(-8.000000, -8.000000) " x="0" y="0" width="16" height="16"></rect>
                <path d="M7.40896287,11.2772143 C7.1494652,11.5910775 6.82680517,11.8339441 6.44097311,12.0058215 C6.05514105,12.1776989 5.63687805,12.2636364 5.18617157,12.2636364 C4.76960953,12.2636364 4.39061204,12.1907764 4.04916773,12.0450542 C3.70772343,11.899332 3.41408574,11.6956977 3.16824584,11.4341451 C2.92240594,11.1725925 2.7329072,10.8568659 2.59974392,10.4869558 C2.46658064,10.1170457 2.4,9.70790883 2.4,9.25953294 C2.4,8.79621119 2.47170223,8.3739969 2.61510883,7.9928774 C2.75851544,7.61175789 2.95996456,7.28482205 3.21946223,7.01206005 C3.4789599,6.73929805 3.78966955,6.52819091 4.15160051,6.37873228 C4.51353147,6.22927365 4.91301531,6.15454545 5.35006402,6.15454545 C5.65736389,6.15454545 5.94246561,6.18817314 6.20537772,6.25542952 C6.46828983,6.32268591 6.69363969,6.41609615 6.88143406,6.53566305 C7.06922843,6.65522996 7.21775447,6.79534532 7.32701665,6.95601334 C7.43627882,7.11668137 7.49090909,7.29042442 7.49090909,7.47724771 C7.49090909,7.69396272 7.43457163,7.86583756 7.32189501,7.9928774 C7.20921839,8.11991723 7.05727795,8.1834362 6.86606914,8.1834362 C6.70900476,8.1834362 6.5707219,8.13859928 6.45121639,8.0489241 C6.33171088,7.95924893 6.21391437,7.81352895 6.0978233,7.6117598 C5.99539001,7.43240945 5.90832302,7.29042588 5.83661972,7.18580484 C5.76491641,7.0811838 5.69833577,7.00085099 5.6368758,6.944804 C5.57541583,6.88875702 5.51395677,6.85139292 5.4524968,6.83271059 C5.39103682,6.81402826 5.3159202,6.80468724 5.22714469,6.80468724 C4.8310693,6.80468724 4.52377403,7.00645336 4.30524968,7.40999166 C4.08672533,7.81352996 3.97746479,8.37772782 3.97746479,9.10260217 C3.97746479,9.87978704 4.10891887,10.4776126 4.37183099,10.8960967 C4.6347431,11.3145809 5.01203339,11.5238198 5.50371319,11.5238198 C5.78369752,11.5238198 6.06367764,11.4659055 6.34366197,11.3500751 C6.6236463,11.2342446 6.88996886,11.0679744 7.14263764,10.8512594 L7.40896287,11.2772143 Z M8.50909091,6.41215772 L9.57256902,6.41215772 L9.57256902,5.79388828 C9.57256902,5.39642737 9.6332917,5.03209366 9.75473888,4.70087623 C9.87618606,4.3696588 10.0452249,4.08444807 10.2618604,3.84523549 C10.4784959,3.6060229 10.7394393,3.42201598 11.0446984,3.2932092 C11.3499576,3.16440242 11.6896763,3.1 12.063865,3.1 C12.2870652,3.1 12.4922094,3.1239209 12.6793037,3.17176342 C12.866398,3.21960593 13.0288722,3.28400836 13.1667311,3.36497262 C13.3045901,3.44593688 13.4112651,3.54530062 13.4867593,3.66306681 C13.5622535,3.78083301 13.6,3.90595772 13.6,4.03844469 C13.6,4.2077336 13.5442008,4.34757886 13.4326007,4.45798467 C13.3210006,4.56839048 13.1798614,4.62359255 13.0091788,4.62359255 C12.891014,4.62359255 12.7876213,4.57943089 12.6989977,4.49110624 C12.6103741,4.4027816 12.4774407,4.2408555 12.3001934,4.00532311 C12.2214169,3.90227769 12.1393592,3.82867492 12.0540179,3.7845126 C11.9686767,3.74035027 11.8800544,3.71826944 11.7881484,3.71826944 C11.5255599,3.71826944 11.3187746,3.89675616 11.1677862,4.25373494 C11.0167978,4.61071372 10.9413047,5.10201221 10.9413047,5.72764513 L10.9413047,6.41215772 L12.605451,6.41215772 L12.605451,7.01938664 L10.9413047,7.01938664 L10.9413047,10.4309091 C10.9413047,10.7106038 10.9560751,10.9387724 10.9856163,11.1154217 C11.0151575,11.292071 11.0709567,11.4319162 11.1530156,11.5349617 C11.2350746,11.6380071 11.3450318,11.7097698 11.4828908,11.7502519 C11.6207498,11.790734 11.7979943,11.8146549 12.0146299,11.8220153 L12.0146299,12.2636364 L8.68633726,12.2636364 L8.68633726,11.8220153 C8.88327864,11.8146549 9.04082937,11.7944142 9.1589942,11.7612924 C9.27715902,11.7281707 9.36578131,11.6656083 9.42486372,11.5736035 C9.48394614,11.4815987 9.52333382,11.3527938 9.54302796,11.1871851 C9.5627221,11.0215764 9.57256902,10.798928 9.57256902,10.5192333 L9.57256902,7.01938664 L8.50909091,7.01938664 L8.50909091,6.41215772 Z" id="cf" fill="#FFFFFF"></path>
            </g>
        </g>
    </g>
</svg>