<?xml version="1.0" encoding="UTF-8"?>
<svg width="20px" height="21px" viewBox="0 0 20 21" version="1.1" xmlns="http://www.w3.org/2000/svg" xmlns:xlink="http://www.w3.org/1999/xlink">
    <!-- Generator: Sketch 57.1 (83088) - https://sketch.com -->
    <title>Instagram</title>
    <desc>Created with Sketch.</desc>
    <g id="Page-1" stroke="none" stroke-width="1" fill="none" fill-rule="evenodd">
        <g id="Desktop-HD-Copy-5" transform="translate(-94.000000, -607.000000)" fill="#2C2C33" fill-rule="nonzero">
            <g id="Links" transform="translate(70.000000, 485.000000)">
                <path d="M37.3330621,132.903104 C37.3330621,131.067316 35.8357881,129.570042 34,129.570042 C32.1642119,129.570042 30.6669379,131.067316 30.6669379,132.903104 C30.6669379,134.738893 32.1642119,136.236167 34,136.236167 C35.8357881,136.236167 37.3330621,134.738893 37.3330621,132.903104 Z M39.1297909,132.903104 C39.1297909,135.741415 36.8383107,138.032895 34,138.032895 C31.1616893,138.032895 28.8702091,135.741415 28.8702091,132.903104 C28.8702091,130.064794 31.1616893,127.773314 34,127.773314 C36.8383107,127.773314 39.1297909,130.064794 39.1297909,132.903104 Z M40.5359264,127.564997 C40.5359264,128.229006 40.0021157,128.762816 39.3381073,128.762816 C38.6740988,128.762816 38.1402881,128.229006 38.1402881,127.564997 C38.1402881,126.900989 38.6740988,126.367178 39.3381073,126.367178 C40.0021157,126.367178 40.5359264,126.900989 40.5359264,127.564997 Z M34,124.700647 C32.5417853,124.700647 29.4170396,124.583469 28.1020425,125.10426 C27.6463504,125.286537 27.3078363,125.507873 26.9563024,125.859407 C26.6047685,126.210941 26.3834323,126.549455 26.2011555,127.005147 C25.6803646,128.320144 25.7975425,131.44489 25.7975425,132.903104 C25.7975425,134.361319 25.6803646,137.486065 26.2011555,138.801062 C26.3834323,139.256754 26.6047685,139.595268 26.9563024,139.946802 C27.3078363,140.298336 27.6463504,140.519672 28.1020425,140.701949 C29.4170396,141.22274 32.5417853,141.105562 34,141.105562 C35.4582147,141.105562 38.5829604,141.22274 39.8979575,140.701949 C40.3536496,140.519672 40.6921637,140.298336 41.0436976,139.946802 C41.3952315,139.595268 41.6165677,139.256754 41.7988445,138.801062 C42.3196354,137.486065 42.2024575,134.361319 42.2024575,132.903104 C42.2024575,131.44489 42.3196354,128.320144 41.7988445,127.005147 C41.6165677,126.549455 41.3952315,126.210941 41.0436976,125.859407 C40.6921637,125.507873 40.3536496,125.286537 39.8979575,125.10426 C38.5829604,124.583469 35.4582147,124.700647 34,124.700647 Z M43.9991863,132.903104 C43.9991863,134.2832 44.012206,135.650277 43.9340874,137.030373 C43.8559688,138.631805 43.4914151,140.05096 42.3196354,141.22274 C41.1478558,142.39452 39.7287005,142.759073 38.1272683,142.837192 C36.7471723,142.91531 35.380096,142.902291 34,142.902291 C32.619904,142.902291 31.2528277,142.91531 29.8727317,142.837192 C28.2712995,142.759073 26.8521442,142.39452 25.6803646,141.22274 C24.5085849,140.05096 24.1440312,138.631805 24.0659126,137.030373 C23.987794,135.650277 24.0008137,134.2832 24.0008137,132.903104 C24.0008137,131.523008 23.987794,130.155932 24.0659126,128.775836 C24.1440312,127.174404 24.5085849,125.755249 25.6803646,124.583469 C26.8521442,123.411689 28.2712995,123.047136 29.8727317,122.969017 C31.2528277,122.890898 32.619904,122.903918 34,122.903918 C35.380096,122.903918 36.7471723,122.890898 38.1272683,122.969017 C39.7287005,123.047136 41.1478558,123.411689 42.3196354,124.583469 C43.4914151,125.755249 43.8559688,127.174404 43.9340874,128.775836 C44.012206,130.155932 43.9991863,131.523008 43.9991863,132.903104 Z" id="Instagram"></path>
            </g>
        </g>
    </g>
</svg>