<?xml version="1.0" encoding="UTF-8"?>
<svg width="20px" height="21px" viewBox="0 0 20 21" version="1.1" xmlns="http://www.w3.org/2000/svg" xmlns:xlink="http://www.w3.org/1999/xlink">
    <!-- Generator: Sketch 57.1 (83088) - https://sketch.com -->
    <title>LinkedIn</title>
    <desc>Created with Sketch.</desc>
    <g id="Page-1" stroke="none" stroke-width="1" fill="none" fill-rule="evenodd">
        <g id="Desktop-HD-Copy-5" transform="translate(-94.000000, -519.000000)" fill-rule="nonzero">
            <g id="Links" transform="translate(70.000000, 485.000000)">
                <g id="LinkedIn" transform="translate(34.000000, 44.903104) rotate(-360.000000) translate(-34.000000, -44.903104) translate(24.000000, 34.903104)">
                    <path d="M19.375,3.75 C19.375,2.02486547 17.9751345,0.625 16.25,0.625 L3.75,0.625 C2.02486547,0.625 0.625,2.02486547 0.625,3.75 L0.625,16.25 C0.625,17.9751345 2.02486547,19.375 3.75,19.375 L16.25,19.375 C17.9751345,19.375 19.375,17.9751345 19.375,16.25 L19.375,3.75 Z" id="Path" stroke="#2C2C33" stroke-width="1.25"></path>
                    <path d="M6.59017325,7.81164935 L6.59017325,16.2500026 L3.90462261,16.2500026 L3.90462261,7.81164935 L6.59017325,7.81164935 Z M6.76107192,5.20606297 C6.76920996,6.01498685 6.18327164,6.66212595 5.24739793,6.66212595 L5.23112187,6.66212595 C4.32780029,6.66212595 3.75,6.01498685 3.75,5.20606297 C3.75,4.38010912 4.35221438,3.75 5.26367399,3.75 C6.18327164,3.75 6.75293389,4.38010912 6.76107192,5.20606297 Z M10.7487077,9.01102944 C11.1019958,8.43317179 11.7393087,7.61580462 13.1657033,7.61580462 C14.9316563,7.61580462 16.2500175,8.82493294 16.2500175,11.4134893 L16.2500175,16.2500026 L13.5726049,16.2500026 L13.5726049,11.7370589 C13.5726049,10.6045655 13.1819794,9.82970154 12.2135535,9.82970154 C11.4729926,9.82970154 11.0335388,10.3491158 10.8382261,10.8515001 C10.7731218,11.0388299 10.7487077,11.2857645 10.7487077,11.5412142 L10.7487077,16.2500026 L8.07129511,16.2500026 C8.10384724,8.60354324 8.07129511,7.81164935 8.07129511,7.81164935 L10.7487077,7.81164935 L10.7487077,9.01102944 L10.7487077,9.01102944 Z" id="" fill="#2C2C33"></path>
                </g>
            </g>
        </g>
    </g>
</svg>