<?xml version="1.0" encoding="UTF-8"?>
<svg width="20px" height="21px" viewBox="0 0 20 21" version="1.1" xmlns="http://www.w3.org/2000/svg" xmlns:xlink="http://www.w3.org/1999/xlink">
    <!-- Generator: Sketch 57.1 (83088) - https://sketch.com -->
    <title>Dribbble</title>
    <desc>Created with Sketch.</desc>
    <g id="Page-1" stroke="none" stroke-width="1" fill="none" fill-rule="evenodd">
        <g id="Desktop-HD-Copy-5" transform="translate(-94.000000, -563.000000)" fill="#2C2C33" fill-rule="nonzero">
            <g id="Links" transform="translate(70.000000, 485.000000)">
                <path d="M37.3333333,96.7676878 C37.203125,96.0124794 36.7083333,93.4083128 35.5104167,90.2833128 C35.4973958,90.2833128 35.4713542,90.2963336 35.4583333,90.2963336 C35.4583333,90.2963336 30.3932292,92.0671669 28.7526042,95.6348753 C28.6744792,95.5697711 28.5572917,95.4916461 28.5572917,95.4916461 C30.0416667,96.7025836 31.9296875,97.4447711 34,97.4447711 C35.1848958,97.4447711 36.3046875,97.1973753 37.3333333,96.7676878 Z M34.9244792,88.8640419 C34.7161458,88.3822711 34.4817708,87.9005003 34.234375,87.4187294 C29.8333333,88.7338336 25.6145833,88.6296669 25.4713542,88.6296669 C25.4583333,88.7208128 25.4583333,88.8119586 25.4583333,88.9031044 C25.4583333,91.0906044 26.2916667,93.0958128 27.6458333,94.6062294 C29.9765625,90.4525836 34.5859375,88.9682086 34.5859375,88.9682086 C34.703125,88.9291461 34.8203125,88.9031044 34.9244792,88.8640419 Z M33.53125,86.1036253 C32.046875,83.4734169 30.4713542,81.3380003 30.3541667,81.1817503 C27.9713542,82.3015419 26.2005208,84.5020628 25.640625,87.1452919 C25.8619792,87.1452919 29.4296875,87.1843544 33.53125,86.1036253 Z M42.4375,90.2572711 C42.2552083,90.2051878 39.8723958,89.4499794 37.1119792,89.8796669 C38.2317708,92.9656044 38.6875,95.4786253 38.7786458,95.9864378 C40.6927083,94.6973753 42.046875,92.6400836 42.4375,90.2572711 Z M39.6380208,82.4968544 C38.140625,81.1687294 36.1614583,80.3614378 34,80.3614378 C33.3098958,80.3614378 32.6328125,80.4525836 31.9817708,80.6088336 C32.1119792,80.7781044 33.7265625,82.9005003 35.1848958,85.5827919 C38.4010417,84.3848753 39.6119792,82.5359169 39.6380208,82.4968544 Z M42.5416667,88.8119586 C42.515625,86.7937294 41.7994792,84.9317503 40.6015625,83.4734169 C40.5755208,83.4994586 39.2083333,85.4786253 35.8359375,86.8588336 C36.03125,87.2624794 36.2265625,87.6791461 36.4088542,88.0958128 C36.4739583,88.2390419 36.5260417,88.3952919 36.5911458,88.5385211 C39.5338542,88.1609169 42.4375,88.7989378 42.5416667,88.8119586 Z M44,88.9031044 C44,94.4239378 39.5208333,98.9031044 34,98.9031044 C28.4791667,98.9031044 24,94.4239378 24,88.9031044 C24,83.3822711 28.4791667,78.9031044 34,78.9031044 C39.5208333,78.9031044 44,83.3822711 44,88.9031044 Z" id="Dribbble" transform="translate(34.000000, 88.903104) rotate(-360.000000) translate(-34.000000, -88.903104) "></path>
            </g>
        </g>
    </g>
</svg>