<?xml version="1.0" encoding="UTF-8"?>
<svg width="20px" height="20px" viewBox="0 0 20 20" version="1.1" xmlns="http://www.w3.org/2000/svg" xmlns:xlink="http://www.w3.org/1999/xlink">
    <!-- Generator: Sketch 57.1 (83088) - https://sketch.com -->
    <title>CV</title>
    <desc>Created with Sketch.</desc>
    <g id="Page-1" stroke="none" stroke-width="1" fill="none" fill-rule="evenodd">
        <g id="Desktop-HD-Copy-4" transform="translate(-116.000000, -2897.000000)" fill-rule="nonzero">
            <g id="Links" transform="translate(24.000000, 2873.000000)">
                <g id="CV" transform="translate(92.000000, 24.000000)">
                    <path d="M19.375,3.75 C19.375,2.02486547 17.9751345,0.625 16.25,0.625 L3.75,0.625 C2.02486547,0.625 0.625,2.02486547 0.625,3.75 L0.625,16.25 C0.625,17.9751345 2.02486547,19.375 3.75,19.375 L16.25,19.375 C17.9751345,19.375 19.375,17.9751345 19.375,16.25 L19.375,3.75 Z" id="Path" stroke="#FAFAFC" stroke-width="1.25" opacity="0.00846354167"></path>
                    <path d="M4.91063029,15.9031044 C1.6368604,15.9031044 0,14.1063209 0,10.5126999 C0,8.7252968 0.445276199,7.3596786 1.33584196,6.41580433 C2.22640771,5.47193006 3.5026571,5 5.16462841,5 C6.38131684,5 7.4725571,5.23831684 8.43838194,5.71495767 L7.59172154,7.93508937 C7.14016707,7.75321326 6.71997686,7.60426524 6.33113829,7.48824083 C5.94229972,7.37221642 5.55346698,7.31420508 5.16462841,7.31420508 C3.67199003,7.31420508 2.92568203,8.37408786 2.92568203,10.4938852 C2.92568203,12.5509667 3.67199003,13.579492 5.16462841,13.579492 C5.71652832,13.579492 6.22765522,13.5058019 6.69802446,13.3584196 C7.1683937,13.2110372 7.63875588,12.9805597 8.10912512,12.6669802 L8.10912512,15.1222954 C7.64502747,15.4170601 7.17623316,15.6208837 6.70272813,15.7337723 C6.2292231,15.846661 5.63186312,15.9031044 4.91063029,15.9031044 Z M13.0479774,15.7149577 L9.04045155,5.19755409 L12.0413923,5.19755409 L14.0733772,11.1900282 C14.2991545,11.9488906 14.4402631,12.6669769 14.4967074,13.3443086 L14.5531515,13.3443086 C14.5845094,12.7422359 14.7256181,12.0241497 14.9764817,11.1900282 L16.9990593,5.19755409 L20,5.19755409 L15.9924741,15.7149577 L13.0479774,15.7149577 Z" id="cv" fill="#2C2C33" transform="translate(10.000000, 10.451552) rotate(-360.000000) translate(-10.000000, -10.451552) "></path>
                </g>
            </g>
        </g>
    </g>
</svg>